<?xml version="1.0" encoding="UTF-8"?>
<svg version="1.1" viewBox="0 0 1000 750" xmlns="http://www.w3.org/2000/svg">
 <g transform="matrix(1.25,0,0,-1.25,0,750)">
  <g fill-rule="evenodd">
   <path d="m259.94 369.84c-2.9666-11.948-3.7425-34.095-3.7425-56.28 0-22.109 0.77583-44.255 3.6957-56.165 2.192-9.287 10.724-13.739 23.046-13.397h363.12c16.427-0.15 31.943-0.189 39.151 0.953 15.971 2.589 27.153 7.191 29.616 14.802 4.7018 14.04 6.8878 33.943 6.8878 53.846 0 19.901-2.1428 39.84-6.8422 53.883-2.4642 7.609-13.69 12.176-29.662 14.764-7.2079 1.142-22.725 1.142-39.151 0.989h-363.12c-12.322 0.304-20.807-4.111-22.999-13.395" fill="#2ecc71"/>
   <path d="m624.49 246.06-53.121 2.768c-6.736 0.349-10.618 1.915-10.996 3.403l-1.145 4.393c-0.227 0.913 3.045 1.558 7.954 1.558h10.276c11.11 0 20.244-0.408 26.825-1.401l21.122-3.194c4.605-0.687 7.876-1.652 7.838-2.819l-0.076-3.689c0-0.705-4.758-1.226-8.677-1.019" fill="#8d8f93"/>
   <g fill="#000">
    <path d="m600.82 256.82 3.956-9.36-33.334 1.75c-2.356 0.114-4.754 0.457-7.078 1.028-4.033 1.066-3.615 2.093-4.717 6.43 0 0.839 5.937 1.142 6.659 1.142 11.493 0 23.06 0.19 34.514-0.99"/>
    <path d="m608.51 247.27-3.805 8.98c8.754-1.293 17.809-2.017 26.294-4.261 2.704-0.877 1.865-1.751 1.826-4.796-0.76-0.761-6.584-0.761-7.572-0.761l-16.743 0.838"/>
   </g>
   <g fill="#8d8f93">
    <path d="m633.32 246.44c1.104 0 2.016-0.456 3.385-1.902 2.208-2.321 1.106-3.615 0.381-6.317-0.799-2.854-0.267-2.397-2.168-5.214-1.181-1.675-2.437-1.902-4.529-1.902-1.065 0-2.129 0.876-1.903 1.902l2.93 11.531c0.228 1.027 0.875 1.902 1.904 1.902"/>
    <path d="m633.51 246.44c1.066-0.037 2.169-0.722 3.235-1.902 0.381-0.342 0.61-0.723 0.798-1.102 1.522 2.243 2.589 6.772 0.532 6.886-1.787 0.19-2.586-0.076-3.387-0.266-1.023-0.191-1.52-2.207-1.178-3.616"/>
    <path d="m563.46 248.34h2.359c1.596 0 2.932-0.274 2.932-0.603v-2.182c0-0.327-1.295-0.601-2.932-0.601h-2.359c-1.636 0-2.931 0.263-2.931 0.601v2.182c0 0.339 1.295 0.603 2.931 0.603"/>
    <path d="m554.93 262 0.05-1.786c24.873-0.078 47.756-0.152 51.568-0.801v0.077c18.695-2.282 31.802-7.572 44.049-6.431 8.594 0.836 10.583 5.899 12.033 11.415 4.403 16.592 6.392 32.765 6.392 49.128 0 16.361-1.719 32.496-6.338 49.049-1.504 5.48-3.439 10.541-12.087 11.378-12.247 1.18-25.301-4.147-44.049-6.393v0.037l-6.982-0.836c-0.216-0.532-0.377-1.105-0.377-1.75l6.771 0.875c2.308-17.847 4.026-35.161 4.026-52.439 0-17.312-1.826-34.588-4.082-52.36-3.223 0.989-19.553 0.837-50.974 0.837"/>
   </g>
   <path d="m608.89 354.43c2.013-17.352 3.157-34.895 2.356-52.361-0.228-10.313-1.445-20.892-2.586-31.165-0.381-3.349-0.838-6.737-1.256-10.048 12.176-1.598 24.126-5.175 36.342-6.393 5.553-0.343 12.252-0.418 15.45 4.909 2.052 3.615 3.044 9.095 3.919 13.129 6.506 29.035 6.049 60.999-1.827 89.69-1.066 3.806-2.245 7.231-5.975 9.095-6.814 2.892-16.934 0.723-23.935-0.645-7.724-1.753-15.904-3.503-23.824-4.417-0.15-0.76 0.268-2.586 0.344-3.461 0.343-2.702 0.686-5.594 0.992-8.333" fill="#000"/>
   <path d="m676.02 319.11-2.821 31.611c-0.035 0.378 0.617 0.856 1.176 0.792l6.182-0.901c0.767-0.084 1.309-0.686 1.336-0.987l2.655-29.754c0.027-0.302-0.488-0.73-1.175-0.794l-6.054-0.541c-0.689-0.06-1.266 0.195-1.299 0.574" fill="#3b3b3c"/>
   <path d="m687.05 259.94c-1.6-9.017 4.718-14.459 14.535-5.936 3.157 2.778 9.436 10.504 9.361 24.773-7.231-1.94-22.603-11.377-23.896-18.837" fill="#e9e8e8"/>
   <path d="m291.54 359c0 2.437-0.571 4.336-1.161 4.336h-5.59c-0.651 0-3.305-2.739-3.346-5.023-1.341-18.455-2.276-31.583-2.276-44.825 0-13.09 0.904-26.334 2.267-44.789 0.042-2.282 2.704-4.985 3.355-4.985h5.59c0.59 0 1.15 1.903 1.15 4.3-0.974 15.183-1.79 30.214-1.79 45.51 0 15.3 0.397 30.292 1.801 45.476" fill="#8d8f93"/>
   <path d="m284.88 362.95c-1.484-0.494-2.854-3.233-3.043-4.68-0.838-12.709-2.207-25.762-2.207-38.586-0.495-16.933 1.064-34.096 2.169-50.952 0.265-1.408 1.597-4.149 3.081-4.642h5.518c1.371 2.777 0.534 8.029 0.306 10.997-0.763 14.573-1.677 29.528-1.295 44.141 0 13.28 0.685 26.56 1.75 39.766-0.039 1.333-0.152 2.738-0.761 3.956h-5.518" fill="#000"/>
   <g fill="#8d8f93">
    <path d="m258.26 369.84c1.826 9.284 8.98 13.776 19.255 13.395h1.446l0.99-14.233-18.115 0.914c-2.89-12.822-4.072-34.438-4.072-56.204 0-21.384 1.026-42.962 4.034-56.317l18.113 0.875-0.989-14.233h-1.407c-10.275-0.381-17.429 4.11-19.255 13.397-2.435 11.871-3.043 34.017-3.043 56.165 0 18.455-0.611 38.28 3.043 56.241"/>
    <path d="m709.01 278.13v0.116h0.264l-0.264-0.116zm-0.04 70.78 0.304-0.077h-0.304v0.077zm-17.352 28.311c2.59 0.458 6.014-0.61 10.046-4.111 3.044-2.816 9.285-10.349 9.36-24.277h0.383c3.195-9.818 4.754-21.006 4.566-33.677h-0.039l0.039-0.227c-0.039-0.99-0.039-1.979-0.077-3.007h0.152c0.153-12.673-1.368-23.898-4.604-33.676h-0.42c-0.075-13.966-6.279-21.464-9.36-24.278-4.032-3.502-7.456-4.605-10.01-4.111l-4.641-5.44c1.675 0.15 3.121 0.343 4.3 0.532 13.318 2.589 22.606 7.153 24.66 14.763 3.957 14.079 5.784 33.944 5.784 53.885v1.559h-0.04c-0.074 19.37-1.901 38.51-5.744 52.172-2.054 7.608-11.342 12.176-24.66 14.764-1.216 0.227-2.663 0.38-4.336 0.531l4.641-5.402"/>
    <path d="m624.53 381.06-53.122-2.77c-6.737-0.344-10.619-1.912-10.999-3.401l-1.141-4.392c-0.228-0.915 3.043-1.558 7.955-1.558h10.273c11.11 0 20.243 0.409 26.828 1.402l21.118 3.193c4.605 0.685 7.878 1.652 7.839 2.819l-0.077 3.688c0 0.706-4.755 1.227-8.674 1.019"/>
   </g>
   <g fill="#000">
    <path d="m600.82 370.3 3.956 9.362-33.334-1.75c-2.356-0.113-4.754-0.457-7.078-1.027-4.033-1.067-3.615-2.094-4.717-6.431 0-0.839 5.937-1.141 6.659-1.141 11.493 0 23.06-0.191 34.514 0.987"/>
    <path d="m608.51 379.85-3.805-8.982c8.754 1.294 17.809 2.018 26.294 4.263 2.704 0.873 1.865 1.751 1.826 4.794-0.76 0.761-6.584 0.761-7.572 0.761l-16.743-0.836"/>
   </g>
   <g fill="#8d8f93">
    <path d="m633.36 380.65c1.103 0 2.018 0.457 3.386 1.905 2.206 2.32 1.103 3.615 0.381 6.316-0.8 2.853-0.267 2.398-2.169 5.212-1.179 1.675-2.437 1.903-4.529 1.903-1.067 0-2.131-0.875-1.904-1.903l2.931-11.528c0.228-1.03 0.877-1.905 1.904-1.905"/>
    <path d="m633.55 380.65c1.064 0.039 2.171 0.725 3.233 1.905 0.383 0.342 0.61 0.722 0.801 1.102 1.522-2.245 2.589-6.772 0.533-6.886-1.79-0.192-2.589 0.075-3.389 0.265-1.025 0.191-1.522 2.207-1.178 3.614"/>
    <path d="m563.49 378.75h2.361c1.599 0 2.931 0.273 2.931 0.602v2.184c0 0.324-1.295 0.599-2.931 0.599h-2.361c-1.635 0-2.929-0.264-2.929-0.599v-2.184c0-0.339 1.294-0.602 2.929-0.602"/>
   </g>
   <path d="m687.05 367.18c-1.6 9.018 4.718 14.46 14.535 5.935 3.157-2.778 9.436-10.502 9.361-24.772-7.231 1.94-22.603 11.379-23.896 18.837" fill="#e9e8e8"/>
   <path d="m708.72 280.99c1.308 0.379 1.963 0.838 2.649 2.056 0.458 0.76 1.193 2.056 1.259 4.262 1.471 6.392 2.27 16.248 2.27 26.142s-1.044 19.749-2.254 26.104c-0.065 2.169-0.801 3.464-1.26 4.262-0.686 1.217-1.34 1.674-2.649 2.016 2.486-10.655 3.254-21.308 3.516-31.926 0.279-11.111-1.731-23.059-3.531-32.916" fill="#3b3b3c"/>
   <path d="m714.75 313.41c0-2.494-0.605-4.528-1.35-4.528s-1.349 2.034-1.349 4.528c0 2.493 0.604 4.529 1.349 4.529s1.35-2.036 1.35-4.529" fill="#e9e8e8"/>
  </g>
  <g fill="#211d1d">
   <path d="m358.43 258.25 179.72-0.399v0.015l-179.72 0.4"/>
   <path d="m538.15 257.85c2.874 0 5.1-0.106 6.607-0.352 1.508-0.246 2.293-0.636 2.291-1.191h0.015c-6e-3 1.142-3.164 1.556-8.913 1.558v-0.015"/>
   <path d="m547.05 252.69h0.0152v3.6117h-0.0152v-3.6117z"/>
   <path d="m547.05 252.69c0-0.797-0.679-1.824-3.303-2.354l3e-3 -0.015c2.627 0.53 3.315 1.561 3.315 2.369h-0.015"/>
   <path d="m543.74 250.34-11.188-2.318 3e-3 -0.015 11.188 2.318"/>
   <path d="m532.56 248.02c-4.713-0.968-6.287-1.227-15.822-1.227-0.323 0-0.654 0-0.995 1e-3v-0.016h0.995c9.535 0 11.112 0.259 15.825 1.227l-3e-3 0.015"/>
   <path d="m515.74 246.8-158.3 0.307v-0.015l158.3-0.308"/>
   <path d="m457.62 260.29 0.42-16.287h0.015l-0.42 16.287"/>
   <path d="m704.3 278.67c-13.199-2.284-25.388-5.252-36.495-9.019l5e-3 -0.015c11.106 3.768 23.294 6.735 36.493 9.018l-3e-3 0.016"/>
   <path d="m687.15 259.15c-9.952-1.868-21.59-3.268-28.343-3.268-1.64 0-2.992 0.083-3.961 0.261l-3e-3 -0.015c0.971-0.178 2.324-0.261 3.964-0.261 6.755 0 18.393 1.4 28.346 3.268l-3e-3 0.015"/>
   <path d="m555 244.04h0.0148v17.96h-0.0148v-17.96z"/>
   <path d="m551.16 244.04h0.016v72.338h-0.016v-72.338z"/>
   <path d="m357.78 260.2h197.15v0.016h-197.15v-0.016z"/>
   <path d="m357.78 262.03h197.15v0.0152h-197.15v-0.0152z"/>
   <path d="m643.09 253.51-1.026-9.742 0.015-1e-3 1.026 9.742"/>
   <path d="m358.43 368.86 179.72 0.397v0.015l-179.72-0.397"/>
   <path d="m538.15 369.26c5.749 2e-3 8.907 0.418 8.913 1.557h-0.015c2e-3 -0.554-0.783-0.943-2.291-1.189-1.507-0.247-3.733-0.353-6.607-0.353v-0.015"/>
   <path d="m547.05 370.81h0.0152v3.6148h-0.0152v-3.6148z"/>
   <path d="m547.06 374.43c0 0.807-0.688 1.837-3.315 2.368l-3e-3 -0.015c2.624-0.531 3.303-1.557 3.303-2.353h0.015"/>
   <path d="m543.75 376.8-11.188 2.317-3e-3 -0.015 11.188-2.317"/>
   <path d="m532.56 379.11c-4.698 0.964-6.281 1.227-15.738 1.227-0.35 0-0.71 0-1.082-1e-3v-0.015c0.372 1e-3 0.732 1e-3 1.082 1e-3 9.458 0 11.037-0.263 15.735-1.227l3e-3 0.015"/>
   <path d="m515.74 380.34-158.3-0.306v-0.015l158.3 0.306"/>
   <path d="m457.68 366.87 0.417 16.249h-0.015l-0.418-16.249"/>
   <path d="m704.3 348.46c-13.199 2.283-25.387 5.251-36.493 9.018l-5e-3 -0.014c11.107-3.767 23.296-6.736 36.495-9.019l3e-3 0.015"/>
   <path d="m687.15 367.98c-9.953 1.867-21.591 3.267-28.346 3.267-1.641 0-2.993-0.082-3.964-0.261l3e-3 -0.015c0.969 0.178 2.321 0.261 3.961 0.261 6.753 0 18.391-1.4 28.343-3.267l3e-3 0.015"/>
   <path d="m555.04 365.08h0.0152v17.96h-0.0152v-17.96z"/>
   <path d="m357.78 366.9h197.15v0.0148h-197.15v-0.0148z"/>
   <path d="m357.78 365.08h197.15v0.016h-197.15v-0.016z"/>
   <path d="m643.15 373.57-1.028 9.74-0.015-1e-3 1.028-9.741"/>
   <path d="m707.81 277.68c2.697 10.475 4.595 21.764 4.595 35.105 0 1.391-0.021 2.805-0.063 4.243l-0.016-1e-3c0.043-1.437 0.063-2.851 0.063-4.242 0-13.34-1.897-24.627-4.594-35.101l0.015-4e-3"/>
   <path d="m707.76 349.14c2.696-10.473 4.593-21.756 4.593-35.093 0-1.394-0.021-2.81-0.064-4.25h0.016c0.042 1.44 0.063 2.856 0.063 4.25 0 13.338-1.897 24.623-4.593 35.097l-0.015-4e-3"/>
  </g>
  <rect transform="scale(1,-1)" x="299.32" y="-378.42" width="248.54" height="13.034" rx="6.5168" ry="6.5168" fill="#000"/>
  <g fill="#8d8f93" fill-rule="evenodd">
   <path d="m494.42 373.81 4e-3 -3.9089c3e-3 -2.6473 0.18225-4.8515 0.39609-4.8501l1.4196 9e-3c0.2106 9.6e-4 0.38723 2.1465 0.38455 4.8551l-4e-3 3.9089c-3e-3 2.7069-0.1764 4.8482-0.39415 4.8468l-1.4196-9e-3c-0.22034-9.7e-4 -0.38917-2.1449-0.38649-4.8518"/>
   <path d="m526.46 373.52 4e-3 -3.9089c3e-3 -2.6473 0.18225-4.8515 0.39609-4.8501l1.4196 9e-3c0.2106 9.6e-4 0.38723 2.1465 0.38455 4.8551l-4e-3 3.9089c-3e-3 2.7069-0.1764 4.8482-0.39415 4.8468l-1.4196-9e-3c-0.22034-9.7e-4 -0.38917-2.1449-0.38649-4.8518"/>
   <path d="m463.11 373.7 4e-3 -3.7799c3e-3 -2.56 0.18225-4.6914 0.39609-4.6901l1.4196 9e-3c0.2106 9.1e-4 0.38723 2.0757 0.38455 4.6949l-4e-3 3.78c-3e-3 2.6176-0.1764 4.6882-0.39415 4.6869l-1.4196-9e-3c-0.22034-9.1e-4 -0.38917-2.0741-0.38649-4.6918"/>
   <path d="m430.5 373.57 4e-3 -3.7799c3e-3 -2.56 0.18225-4.6914 0.39609-4.6901l1.4196 9e-3c0.2106 8.8e-4 0.38723 2.0757 0.38455 4.6949l-4e-3 3.78c-3e-3 2.6176-0.1764 4.6882-0.39415 4.6869l-1.4196-9e-3c-0.22034-9.1e-4 -0.38917-2.0741-0.38649-4.6918"/>
   <path d="m398.59 373.57 4e-3 -3.7799c3e-3 -2.56 0.18225-4.6914 0.39609-4.6901l1.4196 9e-3c0.2106 8.8e-4 0.38723 2.0757 0.38455 4.6949l-4e-3 3.78c-3e-3 2.6176-0.1764 4.6882-0.39415 4.6869l-1.4196-9e-3c-0.22034-9.1e-4 -0.38917-2.0741-0.38649-4.6918"/>
   <path d="m366.59 373.57 4e-3 -3.7799c3e-3 -2.56 0.18225-4.6914 0.39609-4.6901l1.4196 9e-3c0.2106 8.8e-4 0.38723 2.0757 0.38455 4.6949l-4e-3 3.78c-3e-3 2.6176-0.1764 4.6882-0.39415 4.6869l-1.4196-9e-3c-0.22034-9.1e-4 -0.38917-2.0741-0.38649-4.6918"/>
  </g>
  <rect transform="scale(1,-1)" x="298.42" y="-260.82" width="249.43" height="13.034" rx="6.5168" ry="6.5168" fill="#000"/>
  <g fill="#8d8f93" fill-rule="evenodd">
   <path d="m494.42 256.21 4e-3 -3.9089c3e-3 -2.6473 0.18225-4.8515 0.39609-4.8501l1.4196 9e-3c0.2106 9.6e-4 0.38723 2.1465 0.38455 4.8551l-4e-3 3.9089c-3e-3 2.7069-0.1764 4.8482-0.39415 4.8468l-1.4196-9e-3c-0.22035-9.7e-4 -0.38917-2.1449-0.38649-4.8518"/>
   <path d="m526.46 255.92 4e-3 -3.9089c3e-3 -2.6473 0.18225-4.8515 0.39609-4.8501l1.4196 9e-3c0.2106 9.6e-4 0.38724 2.1465 0.38456 4.8551l-4e-3 3.9089c-3e-3 2.7069-0.1764 4.8482-0.39416 4.8468l-1.4196-9e-3c-0.22034-9.7e-4 -0.38917-2.1449-0.38649-4.8518"/>
   <path d="m463.11 256.1 4e-3 -3.78c3e-3 -2.56 0.18226-4.6914 0.3961-4.6901l1.4196 9e-3c0.2106 8.8e-4 0.38723 2.0757 0.38455 4.6949l-4e-3 3.78c-3e-3 2.6176-0.1764 4.6882-0.39415 4.6869l-1.4196-9e-3c-0.22034-9.1e-4 -0.38918-2.0741-0.3865-4.6918"/>
   <path d="m430.5 255.97 4e-3 -3.78c3e-3 -2.56 0.18226-4.6914 0.3961-4.6901l1.4196 9e-3c0.2106 8.8e-4 0.38723 2.0757 0.38455 4.6949l-4e-3 3.78c-3e-3 2.6176-0.1764 4.6882-0.39415 4.6869l-1.4196-9e-3c-0.22034-9.1e-4 -0.38918-2.0741-0.3865-4.6918"/>
   <path d="m398.59 255.97 4e-3 -3.78c3e-3 -2.56 0.18225-4.6914 0.39609-4.6901l1.4196 9e-3c0.2106 8.8e-4 0.38723 2.0757 0.38455 4.6949l-4e-3 3.78c-3e-3 2.6176-0.1764 4.6882-0.39415 4.6869l-1.4196-9e-3c-0.22034-9.1e-4 -0.38917-2.0741-0.38649-4.6918"/>
   <path d="m366.59 255.97 4e-3 -3.78c3e-3 -2.56 0.18225-4.6914 0.39609-4.6901l1.4196 9e-3c0.2106 8.8e-4 0.38723 2.0757 0.38455 4.6949l-4e-3 3.78c-3e-3 2.6176-0.1764 4.6882-0.39415 4.6869l-1.4196-9e-3c-0.22034-9.1e-4 -0.38917-2.0741-0.38649-4.6918"/>
  </g>
 </g>
</svg>
